<svg width="59" height="30" viewBox="0 0 59 30" fill="none"
  xmlns="http://www.w3.org/2000/svg">
  <path fill-rule="evenodd" clip-rule="evenodd" d="M25.7761 6.32704C24.7037 5.50398 23.2891 5.04672 21.7604 5.02386L22.5133 1.06861L19.4559 5.11531C17.699 5.3668 15.8509 6.00696 14.1852 7.01292L11.9492 3.88073C12.9303 3.26343 13.9343 2.64614 15.0295 2.18888C21.8516 -0.668955 27.0538 0.0397891 31.5715 2.76045L25.7761 6.32704Z" fill="url(#paint0_linear_5_44)"/>
  <path fill-rule="evenodd" clip-rule="evenodd" d="M14.156 6.99157L11.9199 3.85938C9.1363 5.64267 6.69492 7.97466 5.05213 10.5582L6.83182 11.4041L4.02538 12.3872C2.8161 14.9249 2.38258 17.6456 3.06708 20.3663L9.79798 16.2281C8.3149 13.5074 10.0946 9.4836 14.156 6.99157Z" fill="url(#paint1_radial_5_44)"/>
  <path fill-rule="evenodd" clip-rule="evenodd" d="M12.7984 26.3082C16.3807 26.171 20.5561 24.7307 24.6631 21.69L21.3775 17.0717C19.7575 17.9862 18.0919 18.5349 16.5404 18.7407L12.8213 23.9305L13.5286 18.6949C12.1596 18.4206 10.9959 17.8033 10.2202 16.8202C10.1745 16.7745 10.1289 16.7059 10.1061 16.6602L3.23828 20.8898C4.19658 23.839 6.91176 25.7824 10.5624 26.2168L12.6159 24.5021L12.7984 26.3082Z" fill="url(#paint2_radial_5_44)"/>
  <path fill-rule="evenodd" clip-rule="evenodd" d="M29.4266 19.2647H28.9475C17.2197 31.2676 4.3968 28.364 2.29767 21.048C0.0160065 13.0689 8.02464 4.19814 16.3299 1.20312C8.77759 2.73493 -2.99579 13.4118 0.700505 23.7458C3.25597 30.8789 15.7823 32.9366 26.6202 24.4316L25.7988 23.2885C27.6698 21.711 28.9247 20.2478 29.4266 19.2647Z" fill="url(#paint3_radial_5_44)"/>
  <path opacity="0.7" fill-rule="evenodd" clip-rule="evenodd" d="M13.391 19.5409L13.5051 18.6949C12.1361 18.4206 10.9724 17.8033 10.1967 16.8202C10.151 16.7745 10.1054 16.7059 10.0826 16.6602L9.67188 16.9116C9.76314 17.0717 9.85441 17.2089 9.94567 17.3689C10.7443 18.4892 11.9535 19.2208 13.391 19.5409Z" fill="#003D86"/>
  <path opacity="0.7" fill-rule="evenodd" clip-rule="evenodd" d="M9.85203 11.6562C9.05345 13.3024 8.87091 14.9942 9.44133 16.4346L9.80639 16.2059C9.07626 14.9028 9.14471 13.2566 9.85203 11.6562Z" fill="#003D86"/>
  <path fill-rule="evenodd" clip-rule="evenodd" d="M58.0888 9.49705C57.7009 8.03383 56.5601 7.4394 54.9401 7.50799C54.5294 7.53085 54.0731 7.57658 53.5711 7.66803L54.9857 3.94141H52.2249L47.6159 15.9901L47.5703 16.0815H49.4869L50.2855 15.5099C50.2855 15.5099 50.719 16.0586 51.6545 16.1958C54.0502 16.5388 56.0581 15.0984 57.1305 13.4294C57.9291 12.2634 58.3854 10.6173 58.0888 9.49705ZM54.7099 13.1757C54.1623 13.9759 53.3866 14.5703 52.5652 14.5932C51.835 14.6161 51.1733 14.1817 51.584 12.8785C52.0176 11.5067 52.9074 9.42623 52.9074 9.42623C55.0065 8.58031 55.691 9.65485 55.6682 10.5008C55.6682 11.0266 55.3944 12.1698 54.7099 13.1757Z" fill="#003D86"/>
  <path fill-rule="evenodd" clip-rule="evenodd" d="M19.1583 7.5182C17.333 7.7011 15.8956 8.22694 14.4581 9.55298C13.3401 10.5818 12.61 12.1822 12.5872 13.4396C12.5415 15.0858 13.7736 16.549 16.2378 16.1832C16.8995 16.0917 17.7437 15.5201 17.7437 15.5201L18.1316 16.0917H20.0482L23.0828 8.15835C22.4896 7.86114 21.0293 7.33529 19.1583 7.5182ZM20.0411 9.14552C20.0411 9.14552 19.1741 11.5004 18.5352 12.8721C17.9192 14.1982 17.0521 14.6326 16.3676 14.5868C15.6147 14.5411 15.1812 14.0153 15.204 13.1694C15.2268 12.1405 15.8657 11.0203 16.322 10.4716C16.7327 10.0143 17.942 8.8483 20.0411 9.14552Z" fill="#003D86"/>
  <path fill-rule="evenodd" clip-rule="evenodd" d="M33.0312 14.993L35.7921 7.74552H38.5301L35.929 14.5357C36.7047 14.9473 38.165 14.7186 38.781 13.3012L40.903 7.72266H43.641L41.0171 14.5586C42.0894 14.9244 43.2759 14.7186 43.8691 13.324L45.9911 7.74552H48.7063L46.5387 13.3697C45.9911 14.6272 45.1012 16.3648 42.0666 16.3648C41.0399 16.3648 40.1272 15.999 39.534 15.5417C38.8723 15.9532 37.4805 16.3648 36.4309 16.3648C35.3814 16.3419 33.4876 15.9761 33.0312 14.993Z" fill="#003D86"/>
  <path fill-rule="evenodd" clip-rule="evenodd" d="M25.1824 8.10672L22.125 16.0858H24.9086L27.4869 9.38704C27.852 9.29559 28.3996 9.227 28.8559 9.227C29.7686 9.227 30.1565 9.56994 30.088 10.0272C30.0652 10.1415 30.0424 10.233 29.9967 10.3701L27.8063 16.1087H30.6128L32.7804 10.4844C32.8716 10.2558 32.9401 10.0501 32.9629 9.82143C33.1226 8.58684 32.2328 7.53516 29.5632 7.53516C28.719 7.53516 27.9661 7.58088 27.4869 7.64947C27.0534 7.6952 26.2548 7.80951 25.1824 8.10672Z" fill="#003D86"/>
  <path fill-rule="evenodd" clip-rule="evenodd" d="M22.1952 2.7316L21.7617 5.01787C21.9899 5.01787 22.1952 5.04073 22.4234 5.06359L23.0623 1.22266L22.1952 2.7316Z" fill="#D8731F"/>
  <path fill-rule="evenodd" clip-rule="evenodd" d="M31.5436 2.76227C28.0299 -0.27847 22.1888 -0.827176 16.3249 1.20761C8.0197 4.20262 0.0110621 13.0734 2.29272 21.0524C4.39185 28.3685 17.2148 31.2949 28.9425 19.2692H27.6876C27.6876 19.2692 26.2045 20.6866 24.653 21.6926C20.546 24.7333 16.3706 26.1737 12.7884 26.3109L12.583 24.5047L10.5295 26.2194C6.90168 25.7622 4.16369 23.8417 3.20539 20.8924L10.0732 16.6628C9.93629 16.457 9.84503 16.297 9.77658 16.2056L3.04567 20.3437C2.36117 17.6459 2.81751 14.9252 4.00397 12.3646L6.81042 11.3815L5.03072 10.5356C6.69633 7.95211 9.11489 5.64297 11.8985 3.83682C12.8796 3.21953 13.8836 2.60223 14.9788 2.14498C15.1841 2.05353 15.4123 1.96208 15.6176 1.89349C22.1432 -0.621411 27.1628 0.110196 31.5436 2.76227Z" fill="white"/>
  <path fill-rule="evenodd" clip-rule="evenodd" d="M22.3998 1.54985L22.491 1.04688L19.4336 5.09358C19.6846 5.07071 19.8671 5.04785 20.1181 5.02499L22.3998 1.54985Z" fill="white"/>
  <path fill-rule="evenodd" clip-rule="evenodd" d="M14.0896 18.8141C13.8158 18.7684 13.7474 18.7684 13.4964 18.7227L12.7891 23.9582L13.0857 23.5467L14.0896 18.8141Z" fill="white"/>
  <defs>
    <linearGradient id="paint0_linear_5_44" x1="20.0146" y1="7.12671" x2="21.8861" y2="1.88342" gradientUnits="userSpaceOnUse">
      <stop stop-color="#FFCE00"/>
      <stop offset="0.1251" stop-color="#FBC105"/>
      <stop offset="0.4883" stop-color="#F1A112"/>
      <stop offset="0.7929" stop-color="#EA8D1A"/>
      <stop offset="1" stop-color="#E8861D"/>
    </linearGradient>
    <radialGradient id="paint1_radial_5_44" cx="0" cy="0" r="1" gradientUnits="userSpaceOnUse" gradientTransform="translate(12.9189 5.53249) scale(20.4984 29.6453)">
      <stop stop-color="#009EDF"/>
      <stop offset="0.2913" stop-color="#009BDC"/>
      <stop offset="0.4974" stop-color="#0093D3"/>
      <stop offset="0.6767" stop-color="#0086C3"/>
      <stop offset="0.8407" stop-color="#0072AE"/>
      <stop offset="0.8504" stop-color="#0071AC"/>
      <stop offset="1" stop-color="#0066A3"/>
    </radialGradient>
    <radialGradient id="paint2_radial_5_44" cx="0" cy="0" r="1" gradientUnits="userSpaceOnUse" gradientTransform="translate(12.9304 5.52999) scale(20.4986 9.23096)">
      <stop stop-color="#009EDF"/>
      <stop offset="0.2913" stop-color="#009BDC"/>
      <stop offset="0.4974" stop-color="#0093D3"/>
      <stop offset="0.6767" stop-color="#0086C3"/>
      <stop offset="0.8407" stop-color="#0072AE"/>
      <stop offset="0.8504" stop-color="#0071AC"/>
      <stop offset="1" stop-color="#0066A3"/>
    </radialGradient>
    <radialGradient id="paint3_radial_5_44" cx="0" cy="0" r="1" gradientUnits="userSpaceOnUse" gradientTransform="translate(12.9253 5.52829) scale(20.4985 20.0582)">
      <stop stop-color="#009EDF"/>
      <stop offset="0.2913" stop-color="#009BDC"/>
      <stop offset="0.4974" stop-color="#0093D3"/>
      <stop offset="0.6767" stop-color="#0086C3"/>
      <stop offset="0.8407" stop-color="#0072AE"/>
      <stop offset="0.8504" stop-color="#0071AC"/>
      <stop offset="1" stop-color="#0066A3"/>
    </radialGradient>
  </defs>
</svg>
